# xmcd
#
# Track frame offsets:
#	150
#	18695
#	31239
#	48244
#	60776
#	74007
#	88332
#	100595
#	113521
#	124899
#	138872
#	156281
#	169881
#	184367
#
# Disc length: 2610 seconds
#
# Revision: 0
# Processed by: cddbd v1.5.2PL0 Copyright (c) Steve Scherf et al.
# Submitted via: EasyCDDAExtractor 16.0.8.2
#
DISCID=bc0a300e
DTITLE=Συλλογικός δίσκος - Αφιέρωμα στον Μ. Βαμβακάρη 1
DYEAR=2003
DGENRE=Ρεμπέτικη
TTITLE0=Νταλάρας Γιώργος - Φραγκοσυριανή
TTITLE1=Νταλάρας Γιώργος - Τα ματόκλαδά σου λάμπουν
TTITLE2=Νταλάρας Γιώργος - Όλοι οι ρεμπέτες του ντουνιά
TTITLE3=Νταλάρας Γιώργος-Βαμβακάρης Σ. και Δ. - Σύρος
TTITLE4=Νταλάρας Γιώργος - Θά 'ρθω να σε ξυπνήσω
TTITLE5=Νταλάρας Γιώργος - Έλα να πάμε εκεί που λες
TTITLE6=Νταλάρας Γιώργος-Βαμβακάρης Σ. και Δ. - Τα ζηλιάρικά σου μάτια
TTITLE7=Χριστοπούλου Χρυσούλα-Βαμβακάρης Σ. και Δ. - Ο Μάρκος πολυτεχνίτης
TTITLE8=Νταλάρας Γιώργος-Βαμβακάρης Σ. και Δ. - Ο Μάρκος υπουργός
TTITLE9=Νταλάρας Γιώργος - Τα όμορφα τα γαλανά σου μάτια
TTITLE10=Νταλάρας Γιώργος - Μικρός αρραβωνιάστηκα
TTITLE11=Νταλάρας Γιώργος - Σκύλα μ' έκανες και λιώνω
TTITLE12=Νταλάρας Γιώργος-Βαμβακάρης Σ. και Δ. - Χρόνια στον Περαία
TTITLE13=Νταλάρας Γιώργος - Στο Φάληρο που πλένεσαι
EXTD=
EXTT0=
EXTT1=
EXTT2=
EXTT3=
EXTT4=
EXTT5=
EXTT6=
EXTT7=
EXTT8=
EXTT9=
EXTT10=
EXTT11=
EXTT12=
EXTT13=
PLAYORDER=
